<svg xmlns="http://www.w3.org/2000/svg" width="1600" height="900" viewBox="0 0 1600 900" fill="none">
  <defs>
    <linearGradient id="bg" x1="0" y1="0" x2="1" y2="1">
      <stop offset="0%" stop-color="#223A68"/>
      <stop offset="50%" stop-color="#3A6A97"/>
      <stop offset="100%" stop-color="#D48D55"/>
    </linearGradient>
    <radialGradient id="sun" cx="0" cy="0" r="1" gradientUnits="userSpaceOnUse" gradientTransform="translate(1180 220) rotate(120) scale(300)">
      <stop stop-color="#FFD9A6" stop-opacity="0.9"/>
      <stop offset="1" stop-color="#FFD9A6" stop-opacity="0"/>
    </radialGradient>
  </defs>
  <rect width="1600" height="900" fill="url(#bg)"/>
  <rect width="1600" height="900" fill="url(#sun)"/>
  <path d="M0 670C160 600 280 590 430 650C540 692 670 734 840 690C980 655 1080 582 1260 610C1390 628 1492 704 1600 740V900H0V670Z" fill="#0E1F3D" fill-opacity="0.55"/>
  <path d="M0 742C140 690 300 700 450 770C560 820 720 840 900 800C1060 765 1200 702 1320 724C1450 746 1530 808 1600 850V900H0V742Z" fill="#0A1730" fill-opacity="0.65"/>
  <g opacity="0.65">
    <rect x="96" y="92" width="300" height="96" rx="16" fill="white" fill-opacity="0.12"/>
    <text x="124" y="150" fill="white" font-size="34" font-family="Arial, Helvetica, sans-serif">Dream Trip Planner</text>
  </g>
</svg>
